<mxfile host="drawio-plugin" modified="2024-02-22T16:44:14.703Z" agent="5.0 (Windows NT 10.0; Win64; x64) AppleWebKit/537.36 (KHTML, like Gecko) Chrome/111.0.0.0 Safari/537.36" etag="Jjwc3rY7cGyItURjj8yh" version="20.5.3" type="embed"><diagram name="Page-1" id="2YBvvXClWsGukQMizWep"><mxGraphModel dx="1396" dy="401" grid="1" gridSize="10" guides="1" tooltips="1" connect="1" arrows="1" fold="1" page="1" pageScale="1" pageWidth="850" pageHeight="1100" math="0" shadow="0"><root><mxCell id="0"/><mxCell id="1" parent="0"/><mxCell id="kRblCLMAtVxusdvtMGun-1" value="app.py" style="shape=umlLifeline;perimeter=lifelinePerimeter;whiteSpace=wrap;html=1;container=1;dropTarget=0;collapsible=0;recursiveResize=0;outlineConnect=0;portConstraint=eastwest;newEdgeStyle={&quot;edgeStyle&quot;:&quot;elbowEdgeStyle&quot;,&quot;elbow&quot;:&quot;vertical&quot;,&quot;curved&quot;:0,&quot;rounded&quot;:0};" parent="1" vertex="1"><mxGeometry y="80" width="100" height="370" as="geometry"/></mxCell><mxCell id="kRblCLMAtVxusdvtMGun-13" value="" style="html=1;points=[[0,0,0,0,5],[0,1,0,0,-5],[1,0,0,0,5],[1,1,0,0,-5]];perimeter=orthogonalPerimeter;outlineConnect=0;targetShapes=umlLifeline;portConstraint=eastwest;newEdgeStyle={&quot;curved&quot;:0,&quot;rounded&quot;:0};" parent="kRblCLMAtVxusdvtMGun-1" vertex="1"><mxGeometry x="45" y="70" width="10" height="280" as="geometry"/></mxCell><mxCell id="kRblCLMAtVxusdvtMGun-8" value="Allowed" style="html=1;verticalAlign=bottom;endArrow=open;dashed=1;endSize=8;curved=0;rounded=0;" parent="kRblCLMAtVxusdvtMGun-1" source="kRblCLMAtVxusdvtMGun-13" target="kRblCLMAtVxusdvtMGun-1" edge="1"><mxGeometry y="110" relative="1" as="geometry"><mxPoint x="190" y="180" as="sourcePoint"/><mxPoint x="20" y="150" as="targetPoint"/><Array as="points"/><mxPoint x="80" y="-75" as="offset"/></mxGeometry></mxCell><mxCell id="kRblCLMAtVxusdvtMGun-2" value="ClassHandler" style="shape=umlLifeline;perimeter=lifelinePerimeter;whiteSpace=wrap;html=1;container=1;dropTarget=0;collapsible=0;recursiveResize=0;outlineConnect=0;portConstraint=eastwest;newEdgeStyle={&quot;edgeStyle&quot;:&quot;elbowEdgeStyle&quot;,&quot;elbow&quot;:&quot;vertical&quot;,&quot;curved&quot;:0,&quot;rounded&quot;:0};" parent="1" vertex="1"><mxGeometry x="320" y="80" width="100" height="370" as="geometry"/></mxCell><mxCell id="kRblCLMAtVxusdvtMGun-17" value="" style="html=1;points=[[0,0,0,0,5],[0,1,0,0,-5],[1,0,0,0,5],[1,1,0,0,-5]];perimeter=orthogonalPerimeter;outlineConnect=0;targetShapes=umlLifeline;portConstraint=eastwest;newEdgeStyle={&quot;curved&quot;:0,&quot;rounded&quot;:0};" parent="kRblCLMAtVxusdvtMGun-2" vertex="1"><mxGeometry x="45" y="130" width="10" height="190" as="geometry"/></mxCell><mxCell id="kRblCLMAtVxusdvtMGun-4" value="GET/POST" style="html=1;verticalAlign=bottom;endArrow=block;curved=0;rounded=0;" parent="1" source="kRblCLMAtVxusdvtMGun-1" target="kRblCLMAtVxusdvtMGun-2" edge="1"><mxGeometry x="-0.5" width="80" relative="1" as="geometry"><mxPoint x="70" y="250" as="sourcePoint"/><mxPoint x="330" y="250" as="targetPoint"/><Array as="points"><mxPoint x="300" y="250"/></Array><mxPoint as="offset"/></mxGeometry></mxCell><mxCell id="kRblCLMAtVxusdvtMGun-5" value="HTTP Request" style="html=1;verticalAlign=bottom;startArrow=circle;startFill=1;endArrow=open;startSize=6;endSize=8;curved=0;rounded=0;" parent="1" target="kRblCLMAtVxusdvtMGun-1" edge="1"><mxGeometry width="80" relative="1" as="geometry"><mxPoint x="-110" y="170" as="sourcePoint"/><mxPoint x="-20" y="170" as="targetPoint"/><Array as="points"><mxPoint x="-70" y="170"/></Array></mxGeometry></mxCell><mxCell id="kRblCLMAtVxusdvtMGun-6" value="Authentication" style="shape=umlLifeline;perimeter=lifelinePerimeter;whiteSpace=wrap;html=1;container=1;dropTarget=0;collapsible=0;recursiveResize=0;outlineConnect=0;portConstraint=eastwest;newEdgeStyle={&quot;curved&quot;:0,&quot;rounded&quot;:0};" parent="1" vertex="1"><mxGeometry x="160" y="80" width="100" height="370" as="geometry"/></mxCell><mxCell id="kRblCLMAtVxusdvtMGun-15" value="" style="html=1;points=[[0,0,0,0,5],[0,1,0,0,-5],[1,0,0,0,5],[1,1,0,0,-5]];perimeter=orthogonalPerimeter;outlineConnect=0;targetShapes=umlLifeline;portConstraint=eastwest;newEdgeStyle={&quot;curved&quot;:0,&quot;rounded&quot;:0};" parent="kRblCLMAtVxusdvtMGun-6" vertex="1"><mxGeometry x="45" y="90" width="10" height="50" as="geometry"/></mxCell><mxCell id="kRblCLMAtVxusdvtMGun-7" value="Cookie" style="html=1;verticalAlign=bottom;endArrow=block;curved=0;rounded=0;" parent="1" source="kRblCLMAtVxusdvtMGun-1" target="kRblCLMAtVxusdvtMGun-6" edge="1"><mxGeometry x="0.0769" width="80" relative="1" as="geometry"><mxPoint x="70" y="180" as="sourcePoint"/><mxPoint x="190" y="180" as="targetPoint"/><Array as="points"><mxPoint x="145" y="180"/></Array><mxPoint as="offset"/></mxGeometry></mxCell><mxCell id="kRblCLMAtVxusdvtMGun-11" value="frontend/util/api" style="shape=umlLifeline;perimeter=lifelinePerimeter;whiteSpace=wrap;html=1;container=1;dropTarget=0;collapsible=0;recursiveResize=0;outlineConnect=0;portConstraint=eastwest;newEdgeStyle={&quot;curved&quot;:0,&quot;rounded&quot;:0};" parent="1" vertex="1"><mxGeometry x="640" y="80" width="100" height="370" as="geometry"/></mxCell><mxCell id="kRblCLMAtVxusdvtMGun-21" value="" style="html=1;points=[[0,0,0,0,5],[0,1,0,0,-5],[1,0,0,0,5],[1,1,0,0,-5]];perimeter=orthogonalPerimeter;outlineConnect=0;targetShapes=umlLifeline;portConstraint=eastwest;newEdgeStyle={&quot;curved&quot;:0,&quot;rounded&quot;:0};" parent="kRblCLMAtVxusdvtMGun-11" vertex="1"><mxGeometry x="45" y="210" width="10" height="80" as="geometry"/></mxCell><mxCell id="kRblCLMAtVxusdvtMGun-14" value="" style="html=1;verticalAlign=bottom;endArrow=open;dashed=1;endSize=8;curved=0;rounded=0;" parent="1" source="kRblCLMAtVxusdvtMGun-6" target="kRblCLMAtVxusdvtMGun-1" edge="1"><mxGeometry relative="1" as="geometry"><mxPoint x="190" y="200" as="sourcePoint"/><mxPoint x="70" y="200" as="targetPoint"/><Array as="points"><mxPoint x="145" y="200"/></Array></mxGeometry></mxCell><mxCell id="kRblCLMAtVxusdvtMGun-20" value="Preprocessed Data &lt;br&gt;from API Call" style="html=1;verticalAlign=bottom;endArrow=open;dashed=1;endSize=8;curved=0;rounded=0;" parent="1" source="kRblCLMAtVxusdvtMGun-11" target="kRblCLMAtVxusdvtMGun-2" edge="1"><mxGeometry x="-0.0012" y="40" relative="1" as="geometry"><mxPoint x="529.5" y="320" as="sourcePoint"/><mxPoint x="370.30769230769215" y="320" as="targetPoint"/><mxPoint as="offset"/><Array as="points"><mxPoint x="650" y="360"/></Array></mxGeometry></mxCell><mxCell id="kRblCLMAtVxusdvtMGun-28" value="Rendered HTML Template or Redirection" style="html=1;verticalAlign=bottom;endArrow=open;dashed=1;endSize=8;curved=0;rounded=0;" parent="1" source="kRblCLMAtVxusdvtMGun-2" target="kRblCLMAtVxusdvtMGun-1" edge="1"><mxGeometry x="-0.0022" relative="1" as="geometry"><mxPoint x="260" y="340" as="sourcePoint"/><mxPoint x="180" y="340" as="targetPoint"/><Array as="points"><mxPoint x="260" y="390"/></Array><mxPoint as="offset"/></mxGeometry></mxCell><mxCell id="kRblCLMAtVxusdvtMGun-29" value="Rendered HTML Template or Redirection" style="html=1;verticalAlign=bottom;endArrow=open;dashed=1;endSize=8;curved=0;rounded=0;" parent="1" source="kRblCLMAtVxusdvtMGun-1" edge="1"><mxGeometry relative="1" as="geometry"><mxPoint x="10" y="420" as="sourcePoint"/><mxPoint x="-90" y="420" as="targetPoint"/></mxGeometry></mxCell><mxCell id="2" value="Backend API" style="shape=umlLifeline;perimeter=lifelinePerimeter;whiteSpace=wrap;html=1;container=1;dropTarget=0;collapsible=0;recursiveResize=0;outlineConnect=0;portConstraint=eastwest;newEdgeStyle={&quot;curved&quot;:0,&quot;rounded&quot;:0};" parent="1" vertex="1"><mxGeometry x="800" y="80" width="100" height="370" as="geometry"/></mxCell><mxCell id="3" value="" style="html=1;points=[[0,0,0,0,5],[0,1,0,0,-5],[1,0,0,0,5],[1,1,0,0,-5]];perimeter=orthogonalPerimeter;outlineConnect=0;targetShapes=umlLifeline;portConstraint=eastwest;newEdgeStyle={&quot;curved&quot;:0,&quot;rounded&quot;:0};" parent="2" vertex="1"><mxGeometry x="45" y="220" width="10" height="50" as="geometry"/></mxCell><mxCell id="4" value="Backend Request" style="html=1;verticalAlign=bottom;endArrow=block;curved=0;rounded=0;" parent="1" source="kRblCLMAtVxusdvtMGun-11" target="2" edge="1"><mxGeometry width="80" relative="1" as="geometry"><mxPoint x="800" y="280" as="sourcePoint"/><mxPoint x="900" y="280" as="targetPoint"/><Array as="points"><mxPoint x="820" y="320"/></Array></mxGeometry></mxCell><mxCell id="5" value="Backend API Response" style="html=1;verticalAlign=bottom;endArrow=open;dashed=1;endSize=8;curved=0;rounded=0;" parent="1" source="2" target="kRblCLMAtVxusdvtMGun-11" edge="1"><mxGeometry y="25" relative="1" as="geometry"><mxPoint x="900" y="290" as="sourcePoint"/><mxPoint x="790" y="290" as="targetPoint"/><mxPoint as="offset"/><Array as="points"><mxPoint x="830" y="340"/></Array></mxGeometry></mxCell><mxCell id="8" value="Admin/User Object" style="shape=umlLifeline;perimeter=lifelinePerimeter;whiteSpace=wrap;html=1;container=1;dropTarget=0;collapsible=0;recursiveResize=0;outlineConnect=0;portConstraint=eastwest;newEdgeStyle={&quot;curved&quot;:0,&quot;rounded&quot;:0};" parent="1" vertex="1"><mxGeometry x="480" y="80" width="100" height="370" as="geometry"/></mxCell><mxCell id="9" value="" style="html=1;points=[[0,0,0,0,5],[0,1,0,0,-5],[1,0,0,0,5],[1,1,0,0,-5]];perimeter=orthogonalPerimeter;outlineConnect=0;targetShapes=umlLifeline;portConstraint=eastwest;newEdgeStyle={&quot;curved&quot;:0,&quot;rounded&quot;:0};" parent="8" vertex="1"><mxGeometry x="45" y="170" width="10" height="40" as="geometry"/></mxCell><mxCell id="10" value="Permission Checker/Getter" style="html=1;verticalAlign=bottom;endArrow=block;curved=0;rounded=0;" parent="1" source="kRblCLMAtVxusdvtMGun-17" target="8" edge="1"><mxGeometry x="-0.0291" width="80" relative="1" as="geometry"><mxPoint x="59.92857142857133" y="260" as="sourcePoint"/><mxPoint x="379.5" y="260" as="targetPoint"/><Array as="points"><mxPoint x="380" y="270"/></Array><mxPoint as="offset"/></mxGeometry></mxCell><mxCell id="11" value="Access Rights" style="html=1;verticalAlign=bottom;endArrow=open;dashed=1;endSize=8;curved=0;rounded=0;" edge="1" parent="1" source="8" target="kRblCLMAtVxusdvtMGun-2"><mxGeometry x="0.1221" y="20" relative="1" as="geometry"><mxPoint x="664.9736842105262" y="180" as="sourcePoint"/><mxPoint x="450" y="180" as="targetPoint"/><mxPoint as="offset"/><Array as="points"><mxPoint x="510" y="280"/></Array></mxGeometry></mxCell><mxCell id="13" value="GET/POST" style="html=1;verticalAlign=bottom;endArrow=block;curved=0;rounded=0;" edge="1" parent="1" source="kRblCLMAtVxusdvtMGun-2" target="kRblCLMAtVxusdvtMGun-21"><mxGeometry width="80" relative="1" as="geometry"><mxPoint x="60" y="260" as="sourcePoint"/><mxPoint x="690" y="265" as="targetPoint"/><Array as="points"><mxPoint x="610" y="310"/></Array></mxGeometry></mxCell></root></mxGraphModel></diagram></mxfile>